<svg id="f2" xmlns="http://www.w3.org/2000/svg" viewBox="0 0 240 150"><defs><style>.cls-1{fill:#814739;}.cls-2{fill:#689142;}.cls-3{fill:#694542;}</style></defs><title>mountain frames2</title><polygon class="cls-1" points="-0.38 108.42 -0.38 108.42 -0.38 127.52 79.93 127.52 86.06 108.42 -0.38 108.42"/><polygon class="cls-1" points="160.68 127.52 240.99 127.52 240.99 108.42 154.55 108.42 160.68 127.52"/><polygon class="cls-2" points="90.2 95.53 -0.38 95.53 -0.38 108.42 86.06 108.42 90.2 95.53"/><polygon class="cls-2" points="150.42 95.53 154.55 108.42 240.99 108.42 240.99 108.42 240.99 95.53 150.42 95.53"/><polygon class="cls-3" points="240.99 150.84 240.99 127.52 160.68 127.52 168.16 150.84 240.99 150.84"/><polygon class="cls-3" points="-0.38 150.84 72.45 150.84 79.93 127.52 -0.38 127.52 -0.38 150.84"/><polygon class="cls-1" points="86.06 102.38 79.93 121.49 160.68 121.49 154.55 102.38 86.06 102.38"/><polygon class="cls-2" points="154.55 102.38 150.42 89.49 90.2 89.49 86.06 102.38 154.55 102.38"/><polygon class="cls-3" points="160.68 121.49 79.93 121.49 72.45 144.81 72.45 150.84 168.16 150.84 168.16 144.81 160.68 121.49"/></svg>