<svg id="f4" xmlns="http://www.w3.org/2000/svg" viewBox="0 0 240 150"><defs><style>.cls-1{fill:#814739;}.cls-2{fill:#689142;}.cls-3{fill:#694542;}</style></defs><title>mountain frames4</title><polygon class="cls-1" points="-0.38 108.42 -0.38 108.42 -0.38 127.52 79.93 127.52 86.06 108.42 -0.38 108.42"/><polygon class="cls-1" points="160.68 127.52 240.99 127.52 240.99 108.42 154.55 108.42 160.68 127.52"/><polygon class="cls-2" points="90.2 95.53 -0.38 95.53 -0.38 108.42 86.06 108.42 90.2 95.53"/><polygon class="cls-2" points="150.42 95.53 154.55 108.42 240.99 108.42 240.99 108.42 240.99 95.53 150.42 95.53"/><path class="cls-2" d="M153.09,44.09H87.53q-8.82,27.48-17.63,55l100.82,0Q161.9,71.55,153.09,44.09Z"/><polygon class="cls-3" points="240.99 150.84 240.99 127.52 160.68 127.52 168.16 150.84 240.99 150.84"/><polygon class="cls-3" points="-0.38 150.84 72.45 150.84 79.93 127.52 -0.38 127.52 -0.38 150.84"/><polygon class="cls-1" points="86.06 60.14 79.93 79.25 160.68 79.25 154.55 60.14 86.06 60.14"/><polygon class="cls-2" points="154.55 60.14 150.42 47.25 90.2 47.25 86.06 60.14 154.55 60.14"/><path class="cls-3" d="M177,130.15q-8.17-25.45-16.36-50.9H79.93q-8.16,25.46-16.31,50.9Z"/><rect class="cls-3" x="63.62" y="130.15" width="113.43" height="20.69"/></svg>