<svg id="f2" xmlns="http://www.w3.org/2000/svg" viewBox="0 0 240 150"><defs><style>.cls-1{fill:#00aaab;}.cls-2{fill:#814739;}</style></defs><title>mountain frames2</title><path class="cls-1" d="M240.65,152.09H-.71V61a21.35,21.35,0,0,0,6.77,1.34c5.84.17,7.54-2.32,12.94-3,5.73-.69,6.88,1.73,14.73,2.44A41.79,41.79,0,0,0,46.37,61H195.84a26.34,26.34,0,0,1,10.69-1.35c6.75.59,8.48,3.59,14.29,3.1,4.22-.35,4.76-1.71,9.7-2.66a19.65,19.65,0,0,1,10.13.91Z"/><path class="cls-2" d="M62.41,51.36c11.24-5.21,26.84-5.55,57.59-6s46.14-.6,57.43,4.16c20,8.45,31.64,23.37,40.13,34.35a138.5,138.5,0,0,1,23.09,45v23.2H-.71V127.15a180.45,180.45,0,0,1,24.6-41C35.23,71.89,45.28,59.29,62.41,51.36Z"/></svg>