<svg id="f4" xmlns="http://www.w3.org/2000/svg" viewBox="0 0 240 150"><defs><style>.cls-1{fill:#00aaab;}.cls-2{fill:#814739;}</style></defs><title>mountain frames4</title><path class="cls-1" d="M240.65,152.09H-.71V76.69A25.14,25.14,0,0,0,6.06,77.8c5.84.14,7.54-1.92,12.94-2.46,6.62-.65,7,2.18,14.73,2,5.89-.12,7-1.78,13.21-2.2a38.78,38.78,0,0,1,13.49,1.52h117a34.1,34.1,0,0,0,14.06,1.63c5.42-.57,5.93-2.08,11-2.44,8-.56,9.42,3.07,17.14,2.36,4.71-.44,5.3-1.89,10.9-2.3a35,35,0,0,1,10.13.75Z"/><path class="cls-2" d="M81.27,48.3C86.92,46.36,98,46,120,45.35c24.11-.71,27.83.08,30.58.87,14.65,4.19,23.69,14.52,30.54,22.75,26.32,31.63,49.87,67.9,59.53,83.12H-.71A805.6,805.6,0,0,1,48.92,76.68C58.81,63.39,67.12,53.15,81.27,48.3Z"/></svg>