<svg id="f1" xmlns="http://www.w3.org/2000/svg" viewBox="0 0 240 150"><defs><style>.cls-1{fill:#00aaab;}.cls-2{fill:#814739;}</style></defs><title>mountain frames1</title><path class="cls-1" d="M240.65,152.09H-.71V61a16.35,16.35,0,0,0,6.77,1.34c3.83-.1,5.76-1.62,9-2.4,2.64-.65,6.51-.88,11.75,1.06H213.7a14.89,14.89,0,0,0,7.12,1.75c4-.08,5.74-1.9,9.7-2.66a19.65,19.65,0,0,1,10.13.91Z"/><path class="cls-2" d="M40.7,50.72c11.76-6.56,18-5.13,79.3-5.37,61.93-.25,69.85-.92,82.3,6.53,8.17,4.88,29.73,20.32,38.35,64.61v35.6H-.71v-34.7C9,70.87,32.38,55.36,40.7,50.72Z"/></svg>