<svg id="f5" xmlns="http://www.w3.org/2000/svg" viewBox="0 0 240 150"><defs><style>.cls-1{fill:#9d241b;}.cls-2{fill:#814739;}.cls-3{fill:#694542;}</style></defs><title>volcanic5</title><rect class="cls-1" x="89.24" y="108.07" width="65.92" height="42.47"/><path class="cls-1" d="M169.56,150.54H76.35C60.91,129.18,56.42,103.82,65.13,80c13.55-37,50.63-37.35,55.47-37.4,6.55-.06,42.33.82,56.64,37.4C186.38,103.43,183.29,128.31,169.56,150.54Z"/><rect class="cls-2" x="-0.38" y="108.12" width="241.37" height="19.11"/><rect class="cls-3" x="-0.38" y="127.23" width="241.37" height="23.32"/><rect class="cls-1" x="89.24" y="108.07" width="65.92" height="42.47"/><path class="cls-3" d="M65.83,95.23H-.38v12.89l89.62-.05a22,22,0,0,1,6.23-6.92c5.64-4,10-2.7,13.41-4.72,9.65-5.65,10.73-36.42-3.11-42.29-9-3.82-20.32,4.58-22.12,6A56.74,56.74,0,0,0,65.83,95.23Z"/><path class="cls-3" d="M169.09,73.14c-7.63-12.24-23.93-26.35-33.79-21.91C122.86,56.84,124,90.5,134.46,96c3.11,1.62,6.78.64,12.34,3.92a25.64,25.64,0,0,1,8.36,8.16l85.83.05V95.23H176.71A53.68,53.68,0,0,0,169.09,73.14Z"/></svg>