<svg id="f4" xmlns="http://www.w3.org/2000/svg" viewBox="0 0 240 150"><defs><style>.cls-1{fill:#9d241b;}.cls-2{fill:#814739;}.cls-3{fill:#694542;}</style></defs><title>mountain frames4</title><rect class="cls-1" x="89.24" y="108.07" width="65.92" height="42.47"/><path class="cls-1" d="M165.93,150.54H79.7c-14.29-15.82-18.41-37.69-10.35-55.31,12.54-27.41,46.84-27.66,51.33-27.7,6,0,39.16.61,52.4,27.7C181.54,112.55,178.64,134.08,165.93,150.54Z"/><rect class="cls-2" x="-0.38" y="108.12" width="241.37" height="19.11"/><rect class="cls-3" x="-0.38" y="127.23" width="241.37" height="23.32"/><rect class="cls-1" x="89.24" y="108.07" width="65.92" height="42.47"/><path class="cls-3" d="M69.35,95.23H-.38v12.89l89.62-.05c3.18-5.19,6.64-7.5,9.3-8.64,5.79-2.48,9.86-1.37,12.15-4.59,2-2.8,1.38-7.59-.89-10.38-4.81-5.9-16.87-2.48-21-1.32A43.39,43.39,0,0,0,69.35,95.23Z"/><path class="cls-3" d="M173.08,95.23A51.65,51.65,0,0,0,153,83.5c-4.47-1.36-17.37-5.3-21.44.22-2,2.77-1.64,7.59.59,10.38,2.59,3.24,6.15,2.68,11.86,4.59,3.12,1,7.18,3.44,11.12,9.38l85.83.05V95.23Z"/></svg>