<svg id="f6" xmlns="http://www.w3.org/2000/svg" viewBox="0 0 240 150"><defs><style>.cls-1{fill:#9d241b;}.cls-2{fill:#814739;}.cls-3{fill:#694542;}</style></defs><title>volcanic6</title><rect class="cls-1" x="89.24" y="108.48" width="65.92" height="42.47"/><rect class="cls-1" x="78.06" y="52" width="88.27" height="98.95" rx="17.79"/><rect class="cls-2" x="-0.38" y="108.53" width="241.37" height="19.11"/><rect class="cls-3" x="-0.38" y="127.64" width="241.37" height="23.32"/><rect class="cls-1" x="89.24" y="108.48" width="65.92" height="42.47"/><path class="cls-3" d="M181.48,95.64a68.26,68.26,0,0,0-15.2-34.37c-8.58-10.06-25.51-23.49-34.14-18.53-5.4,3.11-5.49,12.23-5.63,26-.11,11.87-.2,20.83,5.67,25.38,4.59,3.55,9.26,1.65,16.11,6.77a27.11,27.11,0,0,1,6.87,7.61l85.83,0V95.64Z"/><path class="cls-3" d="M61.18,95.64H-.38v12.89H33.68q27.78,0,55.56,0a24.22,24.22,0,0,1,9.3-9c5-2.61,7.06-1.16,10.34-3,7.2-4,7.19-16.71,7.16-33.17,0-11.51-.08-17.3-3-19.46C106,38.59,89.48,48.65,80.54,57,67,69.73,62.69,86.12,61.18,95.64Z"/></svg>