<svg id="f3" xmlns="http://www.w3.org/2000/svg" viewBox="0 0 240 150"><defs><style>.cls-1{fill:#9d241b;}.cls-2{fill:#814739;}.cls-3{fill:#694542;}</style></defs><title>mountain frames3</title><rect class="cls-1" x="89.24" y="108.07" width="65.92" height="42.47"/><path class="cls-1" d="M156.18,150.54H89.26c-4.54-34-1-62.06,11.66-67,4-1.56,10.92-1.64,19.77-1.74,8.12-.1,16.93-.21,21.52,1.45C155.23,88,159.88,116.18,156.18,150.54Z"/><rect class="cls-2" x="-0.38" y="108.12" width="241.37" height="19.11"/><rect class="cls-3" x="-0.38" y="127.23" width="241.37" height="23.32"/><rect class="cls-1" x="89.24" y="108.07" width="65.92" height="42.47"/><path class="cls-3" d="M69.35,95.23H-.38v12.89l89.62-.05c3.18-5.19,6.64-7.5,9.3-8.64,5.79-2.48,9.86-1.37,12.15-4.59,2-2.84,1.64-7.91-.89-10.38-3.54-3.45-10.72-1.33-21.09,2.29A139.84,139.84,0,0,0,69.35,95.23Z"/><path class="cls-3" d="M173.08,95.23a162.61,162.61,0,0,0-19.91-8.65c-10.65-3.79-18.48-6.26-21.58-2.86-2.21,2.42-1.71,7.5.59,10.38,2.59,3.24,6.15,2.68,11.86,4.59,3.12,1,7.18,3.44,11.12,9.38l85.83.05V95.23Z"/></svg>